<svg width="72" height="72" viewBox="0 0 72 72" fill="none" xmlns="http://www.w3.org/2000/svg">
<g id="2">
<path id="path724" fill-rule="evenodd" clip-rule="evenodd" d="M26.6667 49.3334C26.6667 36.8345 36.8347 26.6667 49.3333 26.6667C61.832 26.6667 72 36.8345 72 49.3334C72 61.8318 61.832 72.0001 49.3333 72.0001C36.8347 72.0001 26.6667 61.8318 26.6667 49.3334ZM37.3333 49.3334C37.3333 55.949 42.7173 61.3334 49.3333 61.3334C55.9507 61.3334 61.3333 55.949 61.3333 49.3334C61.3333 42.7157 55.9507 37.3334 49.3333 37.3334C42.7173 37.3334 37.3333 42.7157 37.3333 49.3334Z" fill="#2D415E"/>
<path id="path726" d="M24.6667 35.3331C18.787 35.3331 14 30.546 14 24.6664H11.3333C11.3333 32.0188 17.3143 37.9997 24.6667 37.9997V35.3331ZM14 24.6664C14 18.7855 18.7869 14 24.6667 14V11.3333C17.3144 11.3333 11.3333 17.3124 11.3333 24.6664H14ZM24.6667 14C30.5477 14 35.3333 18.7854 35.3333 24.6664H38C38 17.3125 32.0203 11.3333 24.6667 11.3333V14ZM35.3333 24.6664C35.3333 30.5461 30.5475 35.3331 24.6667 35.3331V37.9997C32.0205 37.9997 38 32.0187 38 24.6664H35.3333ZM24.6667 0.666667C11.4316 0.666667 0.666667 11.4313 0.666667 24.6664H3.33333C3.33333 12.9041 12.9044 3.33333 24.6667 3.33333V0.666667ZM0.666667 24.6664C0.666667 37.9014 11.4316 48.6664 24.6667 48.6664V45.9997C12.9044 45.9997 3.33333 36.4287 3.33333 24.6664H0.666667ZM24.6667 48.6664C37.9017 48.6664 48.6667 37.9014 48.6667 24.6664H46C46 36.4287 36.429 45.9997 24.6667 45.9997V48.6664ZM48.6667 24.6664C48.6667 11.4313 37.9017 0.666667 24.6667 0.666667V3.33333C36.429 3.33333 46 12.9041 46 24.6664H48.6667Z" fill="#FFCC2A"/>
</g>
</svg>
